<svg xmlns="http://www.w3.org/2000/svg" viewBox="0 0 122.88 76.76"><path d="M110.7 64.75c0 3.31-1.1 6.15-3.34 8.49-2.21 2.34-4.91 3.52-8.06 3.52-3.17 0-5.86-1.18-8.08-3.52-2.21-2.34-3.33-5.18-3.33-8.49 0-3.32 1.12-6.15 3.33-8.49 2.22-2.36 4.91-3.52 8.08-3.52 3.15 0 5.84 1.16 8.06 3.52 2.24 2.33 3.34 5.17 3.34 8.49zM100.12 20.9h22.76v17.79h-22.76V20.9zm-4.17 0H73.19v17.79h22.76V20.9zm-26.93 0H46.26v17.79h22.76V20.9zm31.1-3.11h22.76V0h-22.76v17.79zm-4.17 0H73.19V0h22.76v17.79zm-26.93 0H46.26V0h22.76v17.79zm30.74 43.13a3.83 3.83 0 11-3.83 3.83 3.837 3.837 0 013.83-3.83zm-72.58 0a3.83 3.83 0 110 7.66 3.83 3.83 0 010-7.66zm11.34 3.83c0 3.31-1.1 6.15-3.33 8.49-2.22 2.34-4.91 3.52-8.06 3.52-3.17 0-5.86-1.18-8.08-3.52-2.22-2.34-3.33-5.18-3.33-8.49 0-3.32 1.12-6.15 3.33-8.49 2.22-2.36 4.91-3.52 8.08-3.52 3.15 0 5.84 1.16 8.06 3.52 2.23 2.33 3.33 5.17 3.33 8.49zm83.84 6.23h-8.47c.74-1.91 1.11-3.99 1.11-6.23 0-4.53-1.5-8.4-4.55-11.59-3.02-3.22-6.7-4.8-11-4.8-4.33 0-8 1.58-11.03 4.8-3.02 3.2-4.55 7.07-4.55 11.59 0 2.24.37 4.32 1.12 6.23H45.62V42.84h76.73v28.14h.01zM42.71 53.87l-2.82 1.4c-.51-.74-1.09-1.45-1.74-2.14-3.03-3.23-6.71-4.82-11.01-4.82-4.33 0-8.02 1.59-11.05 4.82-3.03 3.2-4.56 7.08-4.56 11.61 0 1.53.52 4.86.87 6.24H0V36.14c0-4.53 2.89-6.8 8.69-6.8h3.26l8.36-17.41c1.16-2.78 3.26-4.16 6.23-4.16h16.17v46.1zm-5.34-16.53V17.27h-14.4l-7.62 20.08h22.02v-.01z" fill-rule="evenodd" clip-rule="evenodd"/></svg>