<svg xmlns="http://www.w3.org/2000/svg" width="132" height="25"><g fill="#fff"><path d="M12.5 8.036a4.464 4.464 0 104.464 4.464A4.477 4.477 0 0012.5 8.036zm10.655 3.274a10.755 10.755 0 00-9.465-9.464V0h-2.38v1.845a10.755 10.755 0 00-9.465 9.464H0v2.381h1.845a10.755 10.755 0 009.465 9.465V25h2.38v-1.845a10.755 10.755 0 009.465-9.465H25v-2.38zM12.5 20.833a8.333 8.333 0 118.333-8.333 8.358 8.358 0 01-8.333 8.333z"/><text transform="translate(40 18)" font-size="15" font-family="PTSans-Bold, PT Sans" font-weight="700"><tspan x="0" y="0">CenterLogistic</tspan></text></g></svg>