<?xml version="1.0" encoding="utf-8"?>
<!-- Generator: Adobe Illustrator 23.0.1, SVG Export Plug-In . SVG Version: 6.00 Build 0)  -->
<svg version="1.1" id="Capa_1" xmlns="http://www.w3.org/2000/svg" xmlns:xlink="http://www.w3.org/1999/xlink" x="0px" y="0px"
	 viewBox="0 0 512 512" style="enable-background:new 0 0 512 512;" xml:space="preserve">
<style type="text/css">
	.st0{fill:#FFFFFF;}
</style>
<g>
	<path class="st0" d="M482.2,316.2V132.4L120.3,67.1V44.5C120.3,20,100.3,0,75.8,0h-46v30.2h46c7.9,0,14.4,6.4,14.4,14.4V323
		c0,32.2,26.2,58.3,58.3,58.3h12.1v34.4c-6.2-2.7-13-4.2-20.1-4.2c-27.7,0-50.3,22.5-50.3,50.3s22.6,50.3,50.3,50.3
		c26,0,47.5-19.9,50-45.2h0.3v-85.5H452v34.4c-6.2-2.7-13-4.2-20.1-4.2c-27.7,0-50.3,22.5-50.3,50.3s22.6,50.3,50.3,50.3
		c26,0,47.5-19.9,50-45.2h0.3V351.1H148.4c-15.5,0-28.1-12.6-28.1-28.1v-11.9L482.2,316.2z M140.4,481.8c-11.1,0-20.1-9-20.1-20.1
		s9-20.1,20.1-20.1s20.1,9,20.1,20.1S151.5,481.8,140.4,481.8z M431.9,481.8c-11.1,0-20.1-9-20.1-20.1s9-20.1,20.1-20.1
		s20.1,9,20.1,20.1S443,481.8,431.9,481.8z M271.1,283.1l-60.3-0.8V114.1l60.3,10.9V283.1z M301.2,130.4l55.3,10v143.9l-55.3-0.8
		V130.4z M180.6,281.8l-60.3-0.8V97.7l60.3,10.9V281.8z M452,285.6l-65.3-0.9V145.8l65.3,11.8V285.6z"/>
</g>
</svg>
